<?xml version="1.0" encoding="UTF-8"?>
<svg width="24px" height="26px" viewBox="0 0 24 26" version="1.1" xmlns="http://www.w3.org/2000/svg" xmlns:xlink="http://www.w3.org/1999/xlink">
    <title>icon</title>
    <g id="our-offices" stroke="none" stroke-width="1" fill="none" fill-rule="evenodd">
        <g id="our-offices-desktop-v2" transform="translate(-736.000000, -588.000000)">
            <g id="content" transform="translate(270.000000, 319.000000)">
                <g id="org-chart-pdf" transform="translate(447.000000, 262.000000)">
                    <g id="icon" transform="translate(19.000000, 7.000000)">
                        <path d="M3,1 L14.8638898,1 C15.3752572,1 15.8672004,1.19587573 16.2386142,1.54737032 L21.3747243,6.40802808 C21.7738713,6.78576856 22,7.31110687 22,7.86065775 L22,23 C22,24.1045695 21.1045695,25 20,25 L3,25 C1.8954305,25 1,24.1045695 1,23 L1,3 C1,1.8954305 1.8954305,1 3,1 Z" id="Rectangle" fill="#07648D"></path>
                        <line x1="15.5" y1="0.5" x2="15.5" y2="7.5" id="Line-3" stroke="#FFFFFF" stroke-linecap="round"></line>
                        <line x1="23.5" y1="7.5" x2="15.5" y2="7.5" id="Line-3-Copy" stroke="#FFFFFF" stroke-linecap="round"></line>
                        <text id="PDF" font-family="PublicSans-Thin_ExtraBold, Public Sans" font-size="8" font-weight="700" line-spacing="11" fill="#FFFFFF">
                            <tspan x="3.443125" y="19">PDF</tspan>
                        </text>
                    </g>
                </g>
            </g>
        </g>
    </g>
</svg>