<?xml version="1.0" encoding="UTF-8"?>
<svg width="50px" height="50px" viewBox="0 0 50 50" version="1.1" xmlns="http://www.w3.org/2000/svg" xmlns:xlink="http://www.w3.org/1999/xlink">
    <title>left arrow</title>
    <g id="photo-gallery" stroke="none" stroke-width="1" fill="none" fill-rule="evenodd">
        <g id="photo-gallery-overlay-desktop" transform="translate(-33.000000, -362.000000)">
            <g id="overlay" transform="translate(-5.000000, -7.000000)">
                <g id="left-arrow" transform="translate(63.000000, 394.000000) scale(-1, 1) translate(-63.000000, -394.000000) translate(38.000000, 369.000000)">
                    <circle id="Oval" stroke="#FFBE2E" stroke-width="2" opacity="0.9" cx="25" cy="25" r="24"></circle>
                    <path d="M15.2781746,32.5857864 C14.7258898,32.5857864 14.2781746,32.1380712 14.2781746,31.5857864 C14.2781746,31.0335017 14.7258898,30.5857864 15.2781746,30.5857864 L27.2781746,30.5857864 L27.2781746,18.5857864 C27.2781746,18.0335017 27.7258898,17.5857864 28.2781746,17.5857864 C28.8304593,17.5857864 29.2781746,18.0335017 29.2781746,18.5857864 L29.2781746,31.5857864 L29.2781746,31.5857864 C29.2781746,32.0986223 28.8921344,32.5212936 28.3947957,32.5790587 L28.2781746,32.5857864 L28.2781746,32.5857864 L15.2781746,32.5857864 Z" id="Combined-Shape" fill="#FFBE2E" transform="translate(21.778175, 25.085786) rotate(-45.000000) translate(-21.778175, -25.085786) "></path>
                </g>
            </g>
        </g>
    </g>
</svg>