<?xml version="1.0" encoding="utf-8"?>
<!-- Generator: Adobe Illustrator 26.0.3, SVG Export Plug-In . SVG Version: 6.00 Build 0)  -->
<svg version="1.1" id="Layer_1" xmlns="http://www.w3.org/2000/svg" xmlns:xlink="http://www.w3.org/1999/xlink" x="0px" y="0px"
	 viewBox="0 0 20 20" style="enable-background:new 0 0 20 20;" xml:space="preserve">
<style type="text/css">
	.st0{fill:none;}
	.st1{fill:#FFBE2E;}
</style>
<path class="st0" d="M0,0h20v20H0V0z"/>
<path class="st1" d="M10,0C4.5,0,0,4.5,0,10s4.5,10,10,10s10-4.5,10-10S15.5,0,10,0z M9,18c-4-0.5-7-3.9-7-8c0-0.6,0.1-1.2,0.2-1.8
	L7.1,13v1c0,1.1,0.8,2,2,2V18H9z M15.9,15.4c-0.2-0.8-1-1.4-1.9-1.4h-1v-3c0-0.6-0.5-1-1-1H6V8h2c0.6,0,1-0.5,1-1v-2h2
	c1.1,0,2-1,2-2V2.5c2.9,1.2,5.1,4.1,5.1,7.5C18.1,12,17.2,14,15.9,15.4z"/>
</svg>
