<?xml version="1.0" encoding="UTF-8"?>
<svg width="50px" height="50px" viewBox="0 0 50 50" version="1.1" xmlns="http://www.w3.org/2000/svg" xmlns:xlink="http://www.w3.org/1999/xlink">
    <title>close icon</title>
    <g id="photo-gallery" stroke="none" stroke-width="1" fill="none" fill-rule="evenodd">
        <g id="photo-gallery-overlay-desktop" transform="translate(-941.000000, -32.000000)">
            <g id="overlay" transform="translate(-5.000000, -7.000000)">
                <g id="close-icon" transform="translate(946.000000, 39.000000)">
                    <path d="M25,9.5 C25.8284271,9.5 26.5,10.1715729 26.5,11 L26.5,23 L38.5,23 C39.3284271,23 40,23.6715729 40,24.5 C40,25.3284271 39.3284271,26 38.5,26 L26.5,26 L26.5,38 C26.5,38.8284271 25.8284271,39.5 25,39.5 C24.1715729,39.5 23.5,38.8284271 23.5,38 L23.5,26 L11.5,26 C10.6715729,26 10,25.3284271 10,24.5 C10,23.6715729 10.6715729,23 11.5,23 L23.5,23 L23.5,11 C23.5,10.1715729 24.1715729,9.5 25,9.5 Z" id="Combined-Shape" fill="#FFFFFF" transform="translate(25.000000, 24.500000) rotate(-315.000000) translate(-25.000000, -24.500000) "></path>
                    <circle id="Oval" stroke="#FFFFFF" stroke-width="2" opacity="0.9" cx="25" cy="25" r="24"></circle>
                </g>
            </g>
        </g>
    </g>
</svg>