<?xml version="1.0" encoding="UTF-8"?>
<svg width="17px" height="18px" viewBox="0 0 17 18" version="1.1" xmlns="http://www.w3.org/2000/svg" xmlns:xlink="http://www.w3.org/1999/xlink">
    <title>Fill 1</title>
    <g id="web-style-guide" stroke="none" stroke-width="1" fill="none" fill-rule="evenodd">
        <g id="web-style-guide-desktop" transform="translate(-894.000000, -8012.000000)" fill="#FFBE2E">
            <g id="footer" transform="translate(-3.000000, 7747.000000)">
                <g id="top" transform="translate(34.000000, 196.000000)">
                    <g id="right" transform="translate(663.000000, 1.000000)">
                        <g id="social" transform="translate(36.000000, 66.999411)">
                            <path d="M164.0068,1.00058921 L164.0068,4.24758921 C171.5858,4.25258921 177.7458,10.4245892 177.7528,18.0125892 L181.0078,18.0125892 C181.0058,13.3225892 179.0998,9.07458921 176.0208,5.99158921 C172.9408,2.90958921 168.6938,1.00258921 164.0068,1.00058921 L164.0068,1.00058921 Z M164.0018,6.78558921 L164.0018,10.0325892 C166.1208,10.0345892 168.1278,10.8675892 169.6268,12.3705892 C171.1288,13.8695892 171.9568,15.8785892 171.9608,18.0065892 L171.9608,18.0125892 L175.2238,18.0125892 C175.2208,14.9175892 173.9628,12.1145892 171.9298,10.0805892 C169.8978,8.04658921 167.0948,6.78658921 164.0018,6.78558921 L164.0018,6.78558921 Z M167.8548,14.1505892 C168.2668,14.5625892 168.5178,15.1205892 168.5198,15.7415892 C168.5178,16.3625892 168.2668,16.9215892 167.8568,17.3305892 L167.8548,17.3315892 C167.4448,17.7405892 166.8818,17.9915892 166.2578,17.9915892 C165.6328,17.9915892 165.0728,17.7395892 164.6618,17.3305892 C164.2528,16.9215892 163.9998,16.3635892 163.9998,15.7415892 C163.9998,15.1205892 164.2528,14.5615892 164.6618,14.1495892 L164.6618,14.1505892 C165.0728,13.7415892 165.6328,13.4885892 166.2578,13.4885892 C166.8818,13.4885892 167.4448,13.7415892 167.8548,14.1505892 L167.8548,14.1505892 Z" id="Fill-1"></path>
                        </g>
                    </g>
                </g>
            </g>
        </g>
    </g>
</svg>