<?xml version="1.0" encoding="utf-8"?>
<!-- Generator: Adobe Illustrator 26.0.3, SVG Export Plug-In . SVG Version: 6.00 Build 0)  -->
<svg version="1.1" id="Layer_1" xmlns="http://www.w3.org/2000/svg" xmlns:xlink="http://www.w3.org/1999/xlink" x="0px" y="0px"
	 viewBox="0 0 20 20" style="enable-background:new 0 0 20 20;" xml:space="preserve">
<style type="text/css">
	.st0{display:none;}
	.st1{display:inline;fill:none;}
	.st2{display:inline;}
</style>
<g class="st0">
	<path class="st1" d="M16.6,0.5c0.7,0.3,1.2,0.6,1.8,1.2c0.6,0.6,0.9,1.1,1.2,1.8c0.2,0.6,0.4,1.4,0.5,2.4c0,1.1,0.1,1.4,0.1,4V0
		h-9.9c2.6,0,3,0,4,0.1C15.2,0.1,15.9,0.3,16.6,0.5z"/>
	<path class="st1" d="M19.9,14.1c0,1.1-0.2,1.8-0.5,2.4c-0.3,0.7-0.6,1.2-1.2,1.8c-0.6,0.6-1.1,0.9-1.8,1.2
		c-0.6,0.2-1.4,0.4-2.4,0.5C13.1,20,12.7,20,10,20h10v-9.9C20,12.7,20,13.1,19.9,14.1z"/>
	<path class="st1" d="M3.4,19.5c-0.7-0.3-1.2-0.6-1.8-1.2c-0.6-0.6-0.9-1.1-1.2-1.8c-0.2-0.6-0.4-1.4-0.5-2.4C0,13.1,0,12.7,0,10
		c0-2.7,0-3.1,0.1-4.1c0-1.1,0.2-1.8,0.5-2.4c0.3-0.7,0.6-1.2,1.2-1.8c0.6-0.6,1.1-0.9,1.8-1.2c0.6-0.2,1.4-0.4,2.4-0.5
		C6.9,0,7.3,0,9.9,0H0v20h10c-2.7,0-3.1,0-4.1-0.1C4.8,19.9,4.1,19.7,3.4,19.5z"/>
	<path class="st2" d="M16.6,19.5c0.7-0.3,1.2-0.6,1.8-1.2c0.6-0.6,0.9-1.1,1.2-1.8c0.2-0.6,0.4-1.4,0.5-2.4c0-1.1,0.1-1.4,0.1-4V9.9
		c0-2.6,0-3-0.1-4c0-1.1-0.2-1.8-0.5-2.4c-0.3-0.7-0.6-1.2-1.2-1.8c-0.6-0.6-1.1-0.9-1.8-1.2c-0.6-0.2-1.4-0.4-2.4-0.5
		c-1.1,0-1.4-0.1-4-0.1H9.9c-2.6,0-3,0-4,0.1c-1.1,0-1.8,0.2-2.4,0.5C2.8,0.8,2.2,1.1,1.7,1.7C1.1,2.2,0.8,2.8,0.5,3.4
		C0.3,4.1,0.1,4.8,0.1,5.9C0,6.9,0,7.3,0,10c0,2.7,0,3.1,0.1,4.1c0,1.1,0.2,1.8,0.5,2.4c0.3,0.7,0.6,1.2,1.2,1.8
		c0.6,0.6,1.1,0.9,1.8,1.2c0.6,0.2,1.4,0.4,2.4,0.5C6.9,20,7.3,20,10,20c2.7,0,3.1,0,4.1-0.1C15.2,19.9,15.9,19.7,16.6,19.5z
		 M10,18.2c-2.7,0-3,0-4-0.1c-1,0-1.5-0.2-1.9-0.3C3.6,17.6,3.3,17.4,3,17c-0.3-0.3-0.6-0.7-0.7-1.1C2.1,15.5,1.9,15,1.9,14
		c0-1.1-0.1-1.4-0.1-4c0-2.7,0-3,0.1-4c0-1,0.2-1.5,0.3-1.9C2.4,3.6,2.6,3.3,3,3c0.3-0.3,0.7-0.6,1.1-0.7C4.5,2.1,5,1.9,6,1.9
		c1.1,0,1.4-0.1,4-0.1s3,0,4,0.1c1,0,1.5,0.2,1.9,0.3C16.4,2.4,16.7,2.6,17,3c0.3,0.3,0.6,0.7,0.7,1.1C17.9,4.5,18.1,5,18.1,6
		c0,1.1,0.1,1.4,0.1,4c0,2.7,0,3-0.1,4c0,1-0.2,1.5-0.3,1.9c-0.2,0.5-0.4,0.8-0.7,1.1c-0.3,0.3-0.7,0.6-1.1,0.7
		c-0.4,0.1-0.9,0.3-1.9,0.3C13,18.2,12.7,18.2,10,18.2z"/>
	<path class="st2" d="M10,4.9c-2.8,0-5.1,2.3-5.1,5.1s2.3,5.1,5.1,5.1c2.8,0,5.1-2.3,5.1-5.1S12.8,4.9,10,4.9z M10,13.3
		c-1.8,0-3.3-1.5-3.3-3.3c0-1.8,1.5-3.3,3.3-3.3c1.8,0,3.3,1.5,3.3,3.3C13.3,11.8,11.8,13.3,10,13.3z"/>
	<path class="st2" d="M16.5,4.7c0-0.7-0.5-1.2-1.2-1.2c-0.7,0-1.2,0.5-1.2,1.2s0.5,1.2,1.2,1.2C16,5.9,16.5,5.3,16.5,4.7z"/>
</g>
<path class="st0" d="M18.8,4.7c-0.7,0.3-1.4,0.5-2.1,0.6c0.8-0.5,1.3-1.2,1.6-2C17.6,3.7,16.8,4,16,4.2C15.3,3.4,14.4,3,13.3,3
	c-2,0-3.7,1.7-3.7,3.7c0,0.3,0,0.6,0.1,0.8C6.6,7.4,3.9,5.9,2.1,3.7C1.8,4.2,1.6,4.9,1.6,5.5c0,1.3,0.7,2.4,1.6,3.1
	c-0.6,0-1.2-0.2-1.7-0.5v0c0,1.8,1.3,3.3,3,3.6c-0.3,0.1-0.6,0.1-1,0.1c-0.2,0-0.5,0-0.7-0.1c0.5,1.5,1.8,2.5,3.4,2.6
	C5,15.4,3.4,16,1.7,16c-0.3,0-0.6,0-0.9-0.1c1.6,1,3.6,1.7,5.7,1.7C13.3,17.6,17,12,17,7.1c0-0.2,0-0.3,0-0.5
	C17.7,6.1,18.3,5.5,18.8,4.7"/>
<path class="st0" d="M5.2,6.3h2V4.4c0-0.8,0-2.1,0.6-2.9c0.6-0.8,1.5-1.4,3-1.4c2.5,0,3.5,0.4,3.5,0.4l-0.5,2.9c0,0-0.8-0.2-1.6-0.2
	c-0.8,0-1.4,0.3-1.4,1v2.2H14l-0.2,2.8h-2.9V19H7.2V9.2h-2V6.3z"/>
<path class="st0" d="M13.6,9.5l-6.1,3.6V6L13.6,9.5z M19.3,12.9V6.2c0,0,0-3.2-3.2-3.2H3.9c0,0-3.2,0-3.2,3.2v6.7c0,0,0,3.2,3.2,3.2
	h12.2C16.1,16.1,19.3,16.1,19.3,12.9"/>
<path id="RSS" d="M4.7,14.9c0.4,0.4,0.7,1,0.7,1.7c0,0.7-0.3,1.2-0.7,1.7l0,0c-0.4,0.4-1,0.7-1.7,0.7c-0.7,0-1.2-0.3-1.7-0.7
	c-0.4-0.4-0.7-1-0.7-1.7c0-0.7,0.3-1.2,0.7-1.7v0c0.4-0.4,1-0.7,1.7-0.7C3.7,14.2,4.3,14.5,4.7,14.9z M4.7,14.9L4.7,14.9L4.7,14.9
	L4.7,14.9z M1.4,18.3L1.4,18.3C1.4,18.3,1.4,18.3,1.4,18.3L1.4,18.3z M0.7,7.2v3.4c2.2,0,4.3,0.9,5.9,2.5c1.6,1.6,2.5,3.7,2.5,5.9
	l0,0v0h3.4c0-3.3-1.3-6.2-3.5-8.4C6.9,8.5,3.9,7.2,0.7,7.2z M0.7,1.1v3.4c8,0,14.5,6.5,14.5,14.5h3.4c0-4.9-2-9.4-5.3-12.7
	C10.1,3.1,5.6,1.1,0.7,1.1z"/>
</svg>
